<?xml version="1.0" encoding="UTF-8"?>
<!DOCTYPE svg PUBLIC "-//W3C//DTD SVG 1.1//EN" "http://www.w3.org/Graphics/SVG/1.1/DTD/svg11.dtd">
<svg version="1.2" width="64.03mm" height="64.03mm" viewBox="0 0 6403 6403" preserveAspectRatio="xMidYMid" fill-rule="evenodd" stroke-width="28.222" stroke-linejoin="round" xmlns="http://www.w3.org/2000/svg" xmlns:ooo="http://xml.openoffice.org/svg/export" xmlns:xlink="http://www.w3.org/1999/xlink" xmlns:presentation="http://sun.com/xmlns/staroffice/presentation" xmlns:smil="http://www.w3.org/2001/SMIL20/" xmlns:anim="urn:oasis:names:tc:opendocument:xmlns:animation:1.0" xmlns:svg="urn:oasis:names:tc:opendocument:xmlns:svg-compatible:1.0" xml:space="preserve">
 <defs class="ClipPathGroup">
  <clipPath id="presentation_clip_path" clipPathUnits="userSpaceOnUse">
   <rect x="0" y="0" width="6403" height="6403"/>
  </clipPath>
  <clipPath id="presentation_clip_path_shrink" clipPathUnits="userSpaceOnUse">
   <rect x="6" y="6" width="6391" height="6391"/>
  </clipPath>
 </defs>
 <defs class="TextShapeIndex">
  <g ooo:slide="id1" ooo:id-list="id3"/>
 </defs>
 <defs class="EmbeddedBulletChars">
  <g id="bullet-char-template-57356" transform="scale(0.00048828125,-0.00048828125)">
   <path d="M 580,1141 L 1163,571 580,0 -4,571 580,1141 Z"/>
  </g>
  <g id="bullet-char-template-57354" transform="scale(0.00048828125,-0.00048828125)">
   <path d="M 8,1128 L 1137,1128 1137,0 8,0 8,1128 Z"/>
  </g>
  <g id="bullet-char-template-10146" transform="scale(0.00048828125,-0.00048828125)">
   <path d="M 174,0 L 602,739 174,1481 1456,739 174,0 Z M 1358,739 L 309,1346 659,739 1358,739 Z"/>
  </g>
  <g id="bullet-char-template-10132" transform="scale(0.00048828125,-0.00048828125)">
   <path d="M 2015,739 L 1276,0 717,0 1260,543 174,543 174,936 1260,936 717,1481 1274,1481 2015,739 Z"/>
  </g>
  <g id="bullet-char-template-10007" transform="scale(0.00048828125,-0.00048828125)">
   <path d="M 0,-2 C -7,14 -16,27 -25,37 L 356,567 C 262,823 215,952 215,954 215,979 228,992 255,992 264,992 276,990 289,987 310,991 331,999 354,1012 L 381,999 492,748 772,1049 836,1024 860,1049 C 881,1039 901,1025 922,1006 886,937 835,863 770,784 769,783 710,716 594,584 L 774,223 C 774,196 753,168 711,139 L 727,119 C 717,90 699,76 672,76 641,76 570,178 457,381 L 164,-76 C 142,-110 111,-127 72,-127 30,-127 9,-110 8,-76 1,-67 -2,-52 -2,-32 -2,-23 -1,-13 0,-2 Z"/>
  </g>
  <g id="bullet-char-template-10004" transform="scale(0.00048828125,-0.00048828125)">
   <path d="M 285,-33 C 182,-33 111,30 74,156 52,228 41,333 41,471 41,549 55,616 82,672 116,743 169,778 240,778 293,778 328,747 346,684 L 369,508 C 377,444 397,411 428,410 L 1163,1116 C 1174,1127 1196,1133 1229,1133 1271,1133 1292,1118 1292,1087 L 1292,965 C 1292,929 1282,901 1262,881 L 442,47 C 390,-6 338,-33 285,-33 Z"/>
  </g>
  <g id="bullet-char-template-9679" transform="scale(0.00048828125,-0.00048828125)">
   <path d="M 813,0 C 632,0 489,54 383,161 276,268 223,411 223,592 223,773 276,916 383,1023 489,1130 632,1184 813,1184 992,1184 1136,1130 1245,1023 1353,916 1407,772 1407,592 1407,412 1353,268 1245,161 1136,54 992,0 813,0 Z"/>
  </g>
  <g id="bullet-char-template-8226" transform="scale(0.00048828125,-0.00048828125)">
   <path d="M 346,457 C 273,457 209,483 155,535 101,586 74,649 74,723 74,796 101,859 155,911 209,963 273,989 346,989 419,989 480,963 531,910 582,859 608,796 608,723 608,648 583,586 532,535 482,483 420,457 346,457 Z"/>
  </g>
  <g id="bullet-char-template-8211" transform="scale(0.00048828125,-0.00048828125)">
   <path d="M -4,459 L 1135,459 1135,606 -4,606 -4,459 Z"/>
  </g>
  <g id="bullet-char-template-61548" transform="scale(0.00048828125,-0.00048828125)">
   <path d="M 173,740 C 173,903 231,1043 346,1159 462,1274 601,1332 765,1332 928,1332 1067,1274 1183,1159 1299,1043 1357,903 1357,740 1357,577 1299,437 1183,322 1067,206 928,148 765,148 601,148 462,206 346,322 231,437 173,577 173,740 Z"/>
  </g>
 </defs>
 <g>
  <g id="id2" class="Master_Slide">
   <g id="bg-id2" class="Background"/>
   <g id="bo-id2" class="BackgroundObjects"/>
  </g>
 </g>
 <g class="SlideGroup">
  <g>
   <g id="container-id1">
    <g id="id1" class="Slide" clip-path="url(#presentation_clip_path)">
     <g class="Page">
      <g class="Graphic">
       <title>AG
       </title>
       <desc>AG
       </desc>
       <g id="id3">
        <rect class="BoundingBox" stroke="none" fill="none" x="-692" y="-792" width="7938" height="7938"/>
        <path fill="rgb(198,20,20)" stroke="none" d="M 5523,2078 C 5556,2089 5588,2099 5622,2111 5622,2327 5622,2544 5622,2767 5546,2767 5470,2767 5392,2767 5382,2740 5372,2713 5362,2685 5348,2650 5334,2614 5320,2578 5307,2543 5294,2508 5280,2472 5199,2318 5105,2256 4943,2199 4744,2157 4553,2180 4363,2250 4156,2388 4099,2566 4047,2799 4034,2925 4033,3050 4035,3176 4035,3208 4034,3240 4034,3273 4035,3524 4065,3784 4215,3994 4358,4122 4498,4177 4691,4176 4829,4164 4961,4138 5097,4111 5097,3895 5097,3678 5097,3455 5010,3455 4924,3455 4834,3455 4834,3390 4834,3325 4834,3258 5127,3258 5419,3258 5720,3258 5720,3562 5720,3865 5720,4177 5320,4343 5060,4418 4642,4419 4609,4420 4575,4420 4541,4421 4159,4423 3850,4298 3568,4039 3311,3776 3283,3455 3283,3106 3288,2777 3366,2536 3597,2296 4103,1811 4900,1856 5523,2078 L 5523,2078 Z"/>
        <path fill="rgb(198,20,20)" stroke="none" d="M 1686,1979 C 1827,1979 1967,1979 2112,1979 2618,3175 2618,3175 2850,3742 2865,3779 2880,3816 2896,3854 2910,3887 2923,3921 2937,3955 2949,3984 2961,4013 2973,4042 2998,4111 2998,4111 2998,4177 3073,4177 3149,4177 3227,4177 3227,4242 3227,4307 3227,4374 2848,4374 2470,4374 2079,4374 2079,4309 2079,4244 2079,4177 2177,4161 2177,4161 2276,4144 2222,4003 2168,3863 2112,3718 1831,3718 1549,3718 1259,3718 1205,3858 1151,3999 1095,4144 1209,4160 1209,4160 1325,4177 1325,4242 1325,4307 1325,4374 1087,4374 849,4374 604,4374 604,4309 604,4244 604,4177 668,4177 733,4177 800,4177 811,4135 822,4094 834,4051 917,3773 1037,3510 1151,3244 1173,3191 1196,3138 1219,3084 1264,2978 1309,2872 1354,2766 1466,2504 1576,2242 1686,1979 L 1686,1979 Z M 1653,2668 C 1604,2786 1554,2904 1505,3023 1484,3073 1484,3073 1463,3125 1449,3157 1436,3189 1422,3222 1410,3252 1398,3282 1385,3312 1352,3391 1352,3391 1358,3488 1574,3488 1791,3488 2014,3488 1990,3367 1966,3276 1920,3165 1903,3121 1903,3121 1885,3077 1866,3032 1866,3032 1848,2986 1829,2940 1829,2940 1810,2893 1780,2818 1749,2743 1719,2668 1697,2668 1675,2668 1653,2668 L 1653,2668 Z"/>
       </g>
      </g>
     </g>
    </g>
   </g>
  </g>
 </g>
</svg>